<?xml version="1.0" encoding="utf-8"?>
<!-- Generator: Adobe Illustrator 26.3.1, SVG Export Plug-In . SVG Version: 6.00 Build 0)  -->
<svg version="1.1" id="Layer_1" xmlns="http://www.w3.org/2000/svg" xmlns:xlink="http://www.w3.org/1999/xlink" x="0px" y="0px"
	 viewBox="0 0 10 10" style="enable-background:new 0 0 10 10;" xml:space="preserve">
<style type="text/css">
	.st0{fill:#FFFFFF;}
	.st1{opacity:0.5;}
	.st2{fill:#4C3D36;}
</style>
<g>
	<g>
		<g>
			<path class="st0" d="M8.94,7.61C8.35,6.79,7.76,5.98,7.17,5.17C7.13,5.11,7.08,5.05,7.04,4.99C7.03,4.97,7.02,4.96,7,4.94
				C6.96,4.88,6.97,4.8,6.96,4.89c0,0.02,0.03,0.25,0.03,0.11c0-0.13-0.01,0.05-0.01,0.06C6.96,5.22,6.95,5.13,7,5.06
				c0.03-0.04,0.06-0.08,0.09-0.12c0.33-0.45,0.66-0.91,0.99-1.36c0.29-0.4,0.57-0.79,0.86-1.19c0.33-0.46,0.09-1.23-0.39-1.48
				C7.99,0.61,7.43,0.8,7.07,1.3C6.46,2.14,5.85,2.98,5.24,3.82C4.75,4.49,4.68,5.38,5.17,6.08c0.32,0.46,0.66,0.9,0.99,1.36
				C6.46,7.86,6.76,8.28,7.07,8.7C7.4,9.16,8.03,9.43,8.55,9.09C9.01,8.8,9.3,8.1,8.94,7.61L8.94,7.61z"/>
		</g>
		<g class="st1">
			<path class="st2" d="M8.64,0.96C8.04,0.54,7.43,0.8,7.07,1.3C6.46,2.14,5.85,2.98,5.24,3.82C4.75,4.49,4.68,5.38,5.17,6.08
				c0.32,0.46,0.66,0.9,0.99,1.36C6.46,7.86,6.76,8.28,7.07,8.7c0.33,0.46,1.1,0.85,1.7,0.21c0,0-0.54,0.07-1-0.48
				c-0.31-0.37-1.3-1.81-1.9-2.69c-0.3-0.44-0.3-1-0.01-1.45C6.52,3.27,7.7,1.5,8.01,1.25C8.44,0.89,8.64,0.96,8.64,0.96z"/>
		</g>
	</g>
	<g>
		<g>
			<path class="st0" d="M5.01,7.61C4.42,6.79,3.83,5.98,3.23,5.17C3.19,5.11,3.15,5.05,3.1,4.99C3.09,4.97,3.08,4.96,3.07,4.94
				C3.03,4.88,3.04,4.8,3.03,4.89c0,0.02,0.03,0.25,0.03,0.11c0-0.13-0.01,0.05-0.01,0.06c-0.03,0.16-0.04,0.07,0.02,0
				C3.1,5.03,3.13,4.98,3.16,4.94c0.33-0.45,0.66-0.91,0.99-1.36c0.29-0.4,0.57-0.79,0.86-1.19C5.34,1.93,5.1,1.16,4.62,0.91
				C4.06,0.61,3.49,0.8,3.14,1.3C2.52,2.14,1.91,2.98,1.3,3.82C0.82,4.49,0.74,5.38,1.23,6.08c0.32,0.46,0.66,0.9,0.99,1.36
				C2.52,7.86,2.83,8.28,3.14,8.7c0.33,0.46,0.96,0.73,1.48,0.39C5.07,8.8,5.36,8.1,5.01,7.61L5.01,7.61z"/>
		</g>
		<g class="st1">
			<path class="st2" d="M4.7,0.96C4.11,0.54,3.49,0.8,3.14,1.3C2.52,2.14,1.91,2.98,1.3,3.82C0.82,4.49,0.74,5.38,1.23,6.08
				c0.32,0.46,0.66,0.9,0.99,1.36C2.52,7.86,2.83,8.28,3.14,8.7c0.33,0.46,1.1,0.85,1.7,0.21c0,0-0.54,0.07-1-0.48
				c-0.31-0.37-1.3-1.81-1.9-2.69c-0.3-0.44-0.3-1-0.01-1.45C2.59,3.27,3.77,1.5,4.07,1.25C4.51,0.89,4.7,0.96,4.7,0.96z"/>
		</g>
	</g>
</g>
</svg>
