<?xml version="1.0" encoding="utf-8"?>
<!-- Generator: Adobe Illustrator 26.3.1, SVG Export Plug-In . SVG Version: 6.00 Build 0)  -->
<svg version="1.1" id="Layer_1" xmlns="http://www.w3.org/2000/svg" xmlns:xlink="http://www.w3.org/1999/xlink" x="0px" y="0px"
	 viewBox="0 0 22 22" style="enable-background:new 0 0 22 22;" xml:space="preserve">
<style type="text/css">
	.st0{fill:#D76A6A;}
	.st1{opacity:0.5;fill:#4C3D36;enable-background:new    ;}
</style>
<g>
	<g>
		<path class="st0" d="M3.5,21.4c-0.7,0-1.5-0.3-2.1-0.9c-1.1-1.1-1.1-3,0-4.1l15-15c1.1-1.1,3-1.1,4.1,0s1.1,3,0,4.1l-15,15
			C5,21.1,4.2,21.4,3.5,21.4z"/>
		<path class="st1" d="M1.4,20.6c0,0,0.5,0.9,2.1,0.9c0.7,0,1.5-0.3,2.1-0.9l15-15c1.1-1.1,1.1-3,0-4.1c0,0,0.6,0.4-1.4,2.4
			C16.7,6.3,5.8,17.2,4.8,18.4C3.7,19.5,2.5,20.5,1.4,20.6z"/>
	</g>
	<path class="st0" d="M18.5,21.4c-0.7,0-1.5-0.3-2.1-0.9l-15-15c-1.1-1.1-1.1-3,0-4.1s3-1.1,4.1,0l15,15c1.1,1.1,1.1,3,0,4.1
		C20,21.2,19.3,21.4,18.5,21.4z"/>
	<path class="st1" d="M20.6,16.5c1.1,1.1,1.1,3,0,4.1c-0.6,0.6-1.3,0.9-2.1,0.9s-1.5-0.3-2.1-0.9c0,0,1.6-0.2,2.7-1.4
		C20.5,17.7,20.6,16.5,20.6,16.5z"/>
</g>
</svg>
