<?xml version="1.0" encoding="utf-8"?>
<!-- Generator: Adobe Illustrator 26.3.1, SVG Export Plug-In . SVG Version: 6.00 Build 0)  -->
<svg version="1.1" id="Layer_1" xmlns="http://www.w3.org/2000/svg" xmlns:xlink="http://www.w3.org/1999/xlink" x="0px" y="0px"
	 viewBox="0 0 33 33" style="enable-background:new 0 0 33 33;" xml:space="preserve">
<style type="text/css">
	.st0{fill:none;stroke:#4C3D36;stroke-linecap:round;stroke-linejoin:round;stroke-miterlimit:10;}
	.st1{fill:#FFFFFF;stroke:#4C3D36;stroke-linecap:round;stroke-linejoin:round;stroke-miterlimit:10;}
</style>
<g>
	<path class="st0" d="M27.7,31.3H5.3c-2,0-3.6-1.6-3.6-3.6V5.3c0-2,1.6-3.6,3.6-3.6h22.3c2,0,3.6,1.6,3.6,3.6v22.3
		C31.3,29.6,29.6,31.3,27.7,31.3z"/>
	<path class="st0" d="M25.7,28.4H7.3c-1.6,0-3-1.3-3-3V7.6c0-1.6,1.3-3,3-3h18.4c1.6,0,3,1.3,3,3v17.8C28.7,27,27.4,28.4,25.7,28.4z
		"/>
	<g>
		<path class="st1" d="M21.8,21.8H11.2c-0.9,0-1.7-0.7-1.7-1.7v-7.3c0-0.9,0.7-1.7,1.7-1.7h10.7c0.9,0,1.7,0.7,1.7,1.7v7.3
			C23.5,21.1,22.8,21.8,21.8,21.8z"/>
		<path class="st1" d="M15.5,18.2l-6-4.5V12c0-0.4,0.4-0.8,0.8-0.8h12.4c0.4,0,0.8,0.4,0.8,0.8v1.7l-6,4.5
			C16.9,18.6,16.1,18.6,15.5,18.2z"/>
	</g>
</g>
</svg>
