<?xml version="1.0" encoding="utf-8"?>
<!-- Generator: Adobe Illustrator 26.3.1, SVG Export Plug-In . SVG Version: 6.00 Build 0)  -->
<svg version="1.1" id="Layer_1" xmlns="http://www.w3.org/2000/svg" xmlns:xlink="http://www.w3.org/1999/xlink" x="0px" y="0px"
	 viewBox="0 0 582 140" style="enable-background:new 0 0 582 140;" xml:space="preserve">
<style type="text/css">
	.st0{fill:#F3D7C3;}
	.st1{fill:none;stroke:#4C3D36;stroke-linecap:round;stroke-linejoin:round;stroke-miterlimit:10;}
	.st2{fill:#FFFFFC;stroke:#4C3D36;stroke-linecap:round;stroke-linejoin:round;stroke-miterlimit:10;}
	.st3{fill:#4C3D36;stroke:#4C3D36;stroke-linecap:round;stroke-linejoin:round;stroke-miterlimit:10;}
	.st4{fill:#FFFFFF;stroke:#4C3D36;stroke-linecap:round;stroke-linejoin:round;stroke-miterlimit:10;}
	.st5{fill:#4C3D36;}
	.st6{fill:#D76A6A;}
	.st7{fill:#FFFFFC;}
</style>
<g>
	<circle class="st0" cx="316.9" cy="109.8" r="24.8"/>
	<path class="st1" d="M146.4,64.5c2.8,2.9,12.6,2.3,18.2-2.3c13.6-11.3-0.9-36.9,22.7-48.6c21.5-10.7,44.4,11.5,34.4,26.6
		c-16.7,25-1.7,106.3,130.6,59.7c56.1-19.8,28.6-38.9,84.8-37.9"/>
	<path class="st2" d="M510.4,121.9H322.8c-1.4,0-2.6-1.2-2.6-2.6V25.4c0-1.4,1.2-2.6,2.6-2.6h187.6c1.4,0,2.6,1.2,2.6,2.6v93.9
		C513,120.7,511.8,121.9,510.4,121.9z"/>
	<path class="st3" d="M320.2,27v-1.6c0-1.4,1.2-2.6,2.6-2.6h187.6c1.4,0,2.6,1.2,2.6,2.6V27H320.2z"/>
	<path class="st4" d="M352.1,43.1h-36.5c-1.1,0-2.1-0.9-2.1-2.1V11.7c0-1.1,0.9-2.1,2.1-2.1h36.5c1.1,0,2.1,0.9,2.1,2.1V41
		C354.1,42.1,353.2,43.1,352.1,43.1z"/>
	<g>
		<line class="st1" x1="320.2" y1="17.6" x2="347.5" y2="17.6"/>
		<line class="st1" x1="320.2" y1="22" x2="347.5" y2="22"/>
		<line class="st1" x1="320.2" y1="26.3" x2="347.5" y2="26.3"/>
		<line class="st1" x1="320.2" y1="30.6" x2="347.5" y2="30.6"/>
		<line class="st1" x1="320.2" y1="35" x2="347.5" y2="35"/>
	</g>
	<circle class="st5" cx="482" cy="9" r="3.6"/>
	<circle class="st6" cx="495.7" cy="9" r="3.6"/>
	<circle class="st0" cx="509.4" cy="9" r="3.6"/>
	<g>
		<path class="st1" d="M310.7,11c0,0-2.6-1.1-5.3-1.2"/>
		<path class="st1" d="M311.6,9.1c0,0-1.4-2.1-3.7-3.7"/>
		<path class="st1" d="M313.4,7.4c0,0-0.4-2.6-1.8-4.9"/>
	</g>
	<g>
		<path class="st2" d="M365.2,61.9L365.2,61.9c4.6-6.1,13.4-6.8,18.9-1.5l9.7,9.4l9.2-8.9c5.7-5.5,14.9-4.8,19.7,1.5l0,0
			c3.9,5.1,3.6,12.3-0.8,17l-27.7,25.1L365.9,78C361.8,73.5,361.5,66.8,365.2,61.9z"/>
		<rect x="391.9" y="67.6" class="st2" width="4.5" height="4.5"/>
		<rect x="360.7" y="67" class="st2" width="4.5" height="4.5"/>
		<rect x="422.7" y="67" class="st2" width="4.5" height="4.5"/>
		<rect x="377.2" y="55.2" class="st2" width="4.5" height="4.5"/>
		<rect x="406.1" y="55.2" class="st2" width="4.5" height="4.5"/>
		<line class="st1" x1="362.6" y1="103.2" x2="424.9" y2="103.2"/>
		<circle class="st2" cx="363" cy="103.2" r="2.2"/>
		<circle class="st2" cx="425.4" cy="103.2" r="2.2"/>
		<rect x="391.9" y="100.7" class="st2" width="4.5" height="4.5"/>
	</g>
	<polygon class="st2" points="512.3,137.5 500.3,105.6 529.5,118.2 515.9,123 	"/>
	<g>
		<polygon class="st2" points="114,43.4 121.6,40 114,19.3 70,38.9 77.5,57.7 86.2,54.4 82.8,46.1 87.7,43.4 98,68 94.1,69.8 
			98.2,80.3 124,69.9 119.8,59.7 115.5,61.5 106.1,37 110.6,35.5 		"/>
		<polyline class="st1" points="98,68 94.1,69.8 98.2,80.3 124,69.9 119.8,59.7 115.5,61.5 106.1,37 110.6,35.5 		"/>
		<polyline class="st1" points="76.7,35.9 70,38.9 77.5,57.7 86.2,54.4 82.8,46.1 87.7,43.4 94.6,60 		"/>
		<polyline class="st1" points="114,43.4 121.6,40 114,19.3 84.9,32.3 		"/>
		<polyline class="st1" points="103.2,29.5 111.5,25.6 113.7,30.8 		"/>
	</g>
	<g>
		<path class="st7" d="M448.2,45.4c3,0,3,2.9,5.9,2.9c3,0,3-2.9,5.9-2.9c3,0,3,2.9,5.9,2.9c3,0,3-2.9,5.9-2.9c3,0,3,2.9,6,2.9
			c3,0,3-2.9,6-2.9s3,2.9,6,2.9"/>
		<path class="st1" d="M448.2,45.4c3,0,3,2.9,5.9,2.9c3,0,3-2.9,5.9-2.9c3,0,3,2.9,5.9,2.9c3,0,3-2.9,5.9-2.9c3,0,3,2.9,6,2.9
			c3,0,3-2.9,6-2.9s3,2.9,6,2.9"/>
	</g>
	<g>
		<path class="st7" d="M489.9,56.1c-3,0-3-2.9-5.9-2.9c-3,0-3,2.9-5.9,2.9c-3,0-3-2.9-5.9-2.9c-3,0-3,2.9-5.9,2.9c-3,0-3-2.9-6-2.9
			c-3,0-3,2.9-6,2.9s-3-2.9-6-2.9"/>
		<path class="st1" d="M489.9,56.1c-3,0-3-2.9-5.9-2.9c-3,0-3,2.9-5.9,2.9c-3,0-3-2.9-5.9-2.9c-3,0-3,2.9-5.9,2.9c-3,0-3-2.9-6-2.9
			c-3,0-3,2.9-6,2.9s-3-2.9-6-2.9"/>
	</g>
	<path class="st1" d="M0.9,111.3c0,0,21.9-5.8,22-16.6s-23.3,4.1,5.2,15.4s50-23.9,50-23.9"/>
	<polygon class="st4" points="73.1,83.6 82.3,79.9 81.8,89.5 	"/>
	<g>
		<g>
			<g>
				<line class="st4" x1="567.9" y1="65.7" x2="573.7" y2="58.8"/>
				<line class="st4" x1="573.7" y1="58.8" x2="576.8" y2="67.2"/>
				<path class="st4" d="M567.9,65.7c0,0,0.3,8.7,0.4,8.8l-7.1,41c-0.3,1.5,0.8,2.9,2.3,3.2c1.5,0.3,2.9-0.8,3.2-2.3l7.1-41.1
					c0,0,3.1-8,3.1-8"/>
			</g>
			<g>
				<g>
					<line class="st1" x1="572.4" y1="66.6" x2="573.7" y2="59.6"/>
					<circle class="st6" cx="572.1" cy="68.4" r="1"/>
				</g>
			</g>
			<path class="st6" d="M574.1,77.1l-6.7-1.2c-0.4-0.1-0.7-0.5-0.6-0.9l0-0.2c0.1-0.4,0.5-0.7,0.9-0.6l6.7,1.2
				c0.4,0.1,0.7,0.5,0.6,0.9l0,0.2C574.9,76.8,574.5,77.1,574.1,77.1z"/>
		</g>
		<g>
			<g>
				<path class="st4" d="M551.2,72.2l-7.4,0.9c-0.6,0.1-0.9,0.6-0.7,1.1l13.9,45.6c0.3,1.1,1.6,1.9,2.8,1.7v0c1.2-0.2,2-1.2,1.8-2.3
					L552.4,73C552.3,72.5,551.8,72.1,551.2,72.2z"/>
				<path class="st4" d="M543.5,69.4c-0.3,0-0.6,0.3-0.6,0.7l0,2.3c0,0.5,0.5,0.9,1.1,0.9l7.3-0.9c0.5-0.1,0.8-0.6,0.6-1.1l-1.1-2.1
					c-0.2-0.3-0.6-0.5-1-0.5L543.5,69.4z"/>
				<path class="st4" d="M540.9,65.5c0.5,1.1,1.3,2.1,2.3,2.7c0.7,0.5,1.7,0.9,2.8,0.7c2.3-0.3,4.4-2.5,3.7-6.4s-4.4-8.8-9.6-9.5
					c1.4,0.9,3.2,2.8,1.3,7.1C540.5,61.9,540.1,63.5,540.9,65.5z"/>
			</g>
		</g>
	</g>
	<g>
		<path class="st2" d="M567.6,123.8h-14.5l-3.8-19.3c0-0.2,0.1-0.3,0.2-0.3c0.9-0.1,4-0.3,10.6-0.3c6.6,0,9.7,0.2,10.6,0.3
			c0.2,0,0.3,0.2,0.3,0.3L567.6,123.8z"/>
	</g>
	<line class="st1" x1="541.3" y1="123.8" x2="581.1" y2="123.8"/>
</g>
</svg>
