<?xml version="1.0" encoding="utf-8"?>
<!-- Generator: Adobe Illustrator 26.3.1, SVG Export Plug-In . SVG Version: 6.00 Build 0)  -->
<svg version="1.1" id="Layer_1" xmlns="http://www.w3.org/2000/svg" xmlns:xlink="http://www.w3.org/1999/xlink" x="0px" y="0px"
	 viewBox="0 0 10 10" style="enable-background:new 0 0 10 10;" xml:space="preserve">
<style type="text/css">
	.st0{fill:#F3D7C3;}
	.st1{opacity:0.5;}
	.st2{fill:#D76A6A;}
</style>
<g>
	<g>
		<g>
			<path class="st0" d="M1.09,2.41c0.59,0.81,1.17,1.61,1.76,2.42c0.04,0.06,0.09,0.12,0.13,0.18C2.99,5.03,3,5.04,3.01,5.06
				C3.06,5.12,3.04,5.2,3.05,5.11c0-0.02-0.03-0.25-0.03-0.11c0,0.13,0.01-0.05,0.01-0.06c0.03-0.16,0.04-0.07-0.02,0
				C2.99,4.98,2.96,5.02,2.93,5.06C2.6,5.51,2.27,5.96,1.95,6.41C1.66,6.8,1.38,7.19,1.09,7.59C0.76,8.04,1,8.8,1.48,9.06
				c0.56,0.29,1.12,0.1,1.47-0.39C3.55,7.84,4.16,7,4.77,6.17C5.25,5.5,5.32,4.62,4.83,3.93c-0.32-0.45-0.65-0.9-0.98-1.34
				c-0.3-0.42-0.61-0.84-0.91-1.25C2.62,0.88,2,0.61,1.48,0.95C1.03,1.24,0.74,1.93,1.09,2.41L1.09,2.41z"/>
		</g>
		<g class="st1">
			<path class="st2" d="M1.39,9c0.59,0.41,1.2,0.16,1.55-0.33C3.55,7.84,4.16,7,4.77,6.17C5.25,5.5,5.32,4.62,4.83,3.93
				c-0.32-0.45-0.65-0.9-0.98-1.34c-0.3-0.42-0.61-0.84-0.91-1.25C2.62,0.88,1.86,0.49,1.27,1.12c0,0,0.54-0.06,1,0.48
				c0.31,0.37,1.28,1.79,1.88,2.67C4.44,4.7,4.44,5.26,4.15,5.7C3.49,6.71,2.32,8.47,2.02,8.72C1.59,9.07,1.39,9,1.39,9z"/>
		</g>
	</g>
	<g>
		<g>
			<path class="st0" d="M4.99,2.41c0.59,0.81,1.17,1.61,1.76,2.42c0.04,0.06,0.09,0.12,0.13,0.18C6.89,5.03,6.9,5.04,6.91,5.06
				C6.96,5.12,6.94,5.2,6.95,5.11c0-0.02-0.03-0.25-0.03-0.11c0,0.13,0.01-0.05,0.01-0.06c0.03-0.16,0.04-0.07-0.02,0
				C6.89,4.98,6.86,5.02,6.83,5.06C6.5,5.51,6.17,5.96,5.85,6.41C5.56,6.8,5.28,7.19,4.99,7.59C4.66,8.04,4.9,8.8,5.38,9.06
				c0.56,0.29,1.12,0.1,1.47-0.39C7.45,7.84,8.06,7,8.67,6.17C9.15,5.5,9.22,4.62,8.73,3.93c-0.32-0.45-0.65-0.9-0.98-1.34
				c-0.3-0.42-0.61-0.84-0.91-1.25C6.52,0.88,5.9,0.61,5.38,0.95C4.93,1.24,4.64,1.93,4.99,2.41L4.99,2.41z"/>
		</g>
		<g class="st1">
			<path class="st2" d="M5.29,9c0.59,0.41,1.2,0.16,1.55-0.33C7.45,7.84,8.06,7,8.67,6.17C9.15,5.5,9.22,4.62,8.73,3.93
				c-0.32-0.45-0.65-0.9-0.98-1.34c-0.3-0.42-0.61-0.84-0.91-1.25C6.52,0.88,5.76,0.49,5.16,1.12c0,0,0.54-0.06,1,0.48
				c0.31,0.37,1.28,1.79,1.88,2.67C8.34,4.7,8.34,5.26,8.05,5.7C7.39,6.71,6.22,8.47,5.92,8.72C5.49,9.07,5.29,9,5.29,9z"/>
		</g>
	</g>
</g>
</svg>
