<?xml version="1.0" encoding="utf-8"?>
<!-- Generator: Adobe Illustrator 26.3.1, SVG Export Plug-In . SVG Version: 6.00 Build 0)  -->
<svg version="1.1" id="Layer_1" xmlns="http://www.w3.org/2000/svg" xmlns:xlink="http://www.w3.org/1999/xlink" x="0px" y="0px"
	 viewBox="0 0 31 40" style="enable-background:new 0 0 31 40;" xml:space="preserve">
<style type="text/css">
	.st0{fill:none;stroke:#4C3D36;stroke-linecap:round;stroke-linejoin:round;stroke-miterlimit:10;}
	.st1{fill:#D76A6A;}
</style>
<g>
	<path class="st0" d="M5.8,15.3c0,0-1.3-14.4,9.3-14.4c11,0,10.1,14.4,10.1,14.4"/>
	<path class="st0" d="M26.6,39.1H4.4c-1.9,0-3.4-1.5-3.4-3.4v-17c0-1.9,1.5-3.4,3.4-3.4h22.1c1.9,0,3.4,1.5,3.4,3.4v17
		C30,37.6,28.5,39.1,26.6,39.1z"/>
	<g>
		<path class="st1" d="M16.8,30.4v-2.9c0-0.2-0.1-0.3-0.3-0.3h-2c-0.2,0-0.3,0.1-0.3,0.3v2.9c-1.1,0.6-1.9,1.8-1.5,3.3
			c0.2,1,1.1,1.9,2.1,2.1c1.9,0.4,3.6-1,3.6-2.8C18.4,31.9,17.7,30.9,16.8,30.4z"/>
		<g>
			<line class="st0" x1="6.8" y1="19.7" x2="24.2" y2="19.7"/>
			<line class="st0" x1="7.9" y1="23.9" x2="23.1" y2="23.9"/>
		</g>
	</g>
</g>
</svg>
