<?xml version="1.0" encoding="utf-8"?>
<!-- Generator: Adobe Illustrator 26.3.1, SVG Export Plug-In . SVG Version: 6.00 Build 0)  -->
<svg version="1.1" id="Layer_1" xmlns="http://www.w3.org/2000/svg" xmlns:xlink="http://www.w3.org/1999/xlink" x="0px" y="0px"
	 viewBox="0 0 38 38" style="enable-background:new 0 0 38 38;" xml:space="preserve">
<style type="text/css">
	.st0{fill:#F3D7C3;}
	.st1{opacity:0.5;fill:#D76A6A;}
	.st2{fill:none;stroke:#4C3D36;stroke-linecap:round;stroke-linejoin:round;stroke-miterlimit:10;}
	.st3{fill:#D76A6A;}
</style>
<g>
	<circle class="st0" cx="19" cy="19" r="14.8"/>
	<path class="st1" d="M27.7,30.9c0,0-3.4,2.9-8.7,2.9c-8.2,0-14.8-6.6-14.8-14.8c0-5.1,2.6-9.6,6.5-12.3c0,0-0.3,0.6-0.6,1.7
		c-0.1,0.3-0.2,0.6-0.3,1c-0.2,0.6-0.4,1.4-0.5,2.2c-0.1,0.6-0.2,1.2-0.3,1.8c-0.1,0.9-0.2,1.8-0.3,2.8c-0.1,1.5,0,3.1,0.3,4.6
		c0.1,0.8,0.4,1.6,0.6,2.3c0.2,0.5,0.4,1.1,0.7,1.6c0.2,0.4,0.5,0.8,0.8,1.2c0.3,0.4,0.6,0.8,1,1.1c0.6,0.6,1.2,1.1,2,1.6
		c0.6,0.4,1.4,0.8,2.2,1.1c0.7,0.3,1.5,0.5,2.3,0.7c0.9,0.2,2,0.4,3.1,0.5C23.4,31.1,25.4,31.1,27.7,30.9z"/>
	<polyline class="st2" points="9.3,14.4 12.7,16.6 9,17.9 	"/>
	<polyline class="st2" points="28.4,14.4 25,16.6 28.7,17.9 	"/>
	<path class="st3" d="M4.8,22.9c0,0,1.2,0.5,1.8,0.5c2,0,3.7-1.6,3.7-3.7s-1.6-3.7-3.7-3.7c-0.8,0-1.6,0.3-2.2,0.8
		C4.4,16.9,3.9,19.9,4.8,22.9z"/>
	<path class="st3" d="M33.3,22.9c0,0-1.2,0.5-1.8,0.5c-2,0-3.7-1.6-3.7-3.7s1.6-3.7,3.7-3.7c0.8,0,1.6,0.3,2.2,0.8
		C33.6,16.9,34.1,19.9,33.3,22.9z"/>
	<path class="st2" d="M22.7,18.8c0,1.9-1.4,3.4-3.2,3.4c-1.8,0-3.2-1.5-3.2-3.4"/>
</g>
</svg>
