<?xml version="1.0" encoding="utf-8"?>
<!-- Generator: Adobe Illustrator 26.3.1, SVG Export Plug-In . SVG Version: 6.00 Build 0)  -->
<svg version="1.1" id="Layer_1" xmlns="http://www.w3.org/2000/svg" xmlns:xlink="http://www.w3.org/1999/xlink" x="0px" y="0px"
	 viewBox="0 0 33 33" style="enable-background:new 0 0 33 33;" xml:space="preserve">
<style type="text/css">
	.st0{fill:#F3D7C3;}
	.st1{opacity:0.5;fill:#D76A6A;}
	.st2{fill:none;stroke:#4C3D36;stroke-linecap:round;stroke-linejoin:round;stroke-miterlimit:10;}
</style>
<g>
	<path class="st0" d="M22.1,28.7c3.9-1.8,6.6-5.3,4.9-11c-0.5-1.7-1.9-4.4-2.4-6.4c-0.5-2-0.7-5-2.9-5s-1.2,3-0.8,4.9
		s0.9,2.9,0.1,3.2c-0.6,0.2-2.9-3.2-4-4.8c-0.9-1.2-2.9-3.7-4.1-5.4c-0.6-0.8-1.7-0.9-2.4-0.3l0,0c-0.7,0.5-0.8,1.5-0.3,2.2l5.6,7.9
		L9.6,5.4C9,4.5,7.7,4.3,6.9,5l0,0C6.1,5.6,5.9,6.7,6.5,7.6l6,8.8L7.6,9C6.9,8.1,5.6,8,4.8,8.7l0,0c-0.7,0.6-0.9,1.7-0.3,2.5
		l5.4,8.2l-3.6-5.6c-0.5-0.7-1.5-0.8-2.1-0.2l0,0c-0.5,0.5-0.6,1.2-0.2,1.8c1.3,2,3.9,6.5,4.6,7.5C9.4,24.3,13.5,32.7,22.1,28.7z"/>
	<path class="st1" d="M15.8,14.1l-5.6-7.9c-0.5-0.7-0.4-1.8,0.6-2.4l0,0c0,0-0.2,0.9,0.4,1.9c0.3,0.6,3.7,5,4.7,6.6
		C16.3,13.1,15.8,14.1,15.8,14.1z"/>
	<path class="st1" d="M9.9,19.4L4.4,11C3.9,10.3,4.1,9.2,5,8.6l0,0c0,0-0.2,0.9,0.4,2c0.3,0.6,3.5,5.4,4.5,7.1
		C10.4,18.4,9.9,19.4,9.9,19.4z"/>
	<path class="st1" d="M12.8,16.8L6.5,7.5C6,6.8,6,5.5,6.9,4.9l0,0c0,0-0.3,0.9,0.5,2.2c0.4,0.6,4.4,6.3,5.4,7.9
		C13.4,15.8,12.8,16.8,12.8,16.8z"/>
	<path class="st1" d="M20,13.7c0,0,0.3,0.3,0.4,0.4c0.2,0.2,0.4,0.3,0.4,0.3s-3.4,5.9-0.7,11l0,0c-0.6,0.1-1.1-0.2-1.4-0.7
		C18.1,23.1,17.3,19.3,20,13.7z"/>
	<path class="st2" d="M22.8,3.1c0,0,7.6,0.5,7.4,8.1"/>
	<path class="st2" d="M27.4,1.4c1.8,0.7,4.2,2.1,4.8,5.3"/>
	<path class="st2" d="M10.3,29.7c0,0-7.6-0.2-7.7-7.8"/>
	<path class="st2" d="M5.8,31.6c-1.9-0.6-4.2-2-5.1-5.1"/>
</g>
</svg>
