<?xml version="1.0" encoding="utf-8"?>
<!-- Generator: Adobe Illustrator 26.3.1, SVG Export Plug-In . SVG Version: 6.00 Build 0)  -->
<svg version="1.1" id="Layer_1" xmlns="http://www.w3.org/2000/svg" xmlns:xlink="http://www.w3.org/1999/xlink" x="0px" y="0px"
	 viewBox="0 0 38 38" style="enable-background:new 0 0 38 38;" xml:space="preserve">
<style type="text/css">
	.st0{fill:#F3D7C3;}
	.st1{opacity:0.5;}
	.st2{fill:#D76A6A;}
	.st3{fill:none;stroke:#4C3D36;stroke-linecap:round;stroke-linejoin:round;stroke-miterlimit:10;}
	.st4{fill:#4C3D36;}
</style>
<g>
	<g>
		<path class="st0" d="M37,11.7l-5.2-7c-0.3-0.3-0.7-0.4-1.1-0.2l-9.1,6.8c0,0-7.7,3.6-11.8,5.6l-2.6,1.2c0,0,0,0,0,0l10.1,13.6
			c0,0,9.9-11.2,10.7-12.3c0-0.1,0.1-0.1,0.2-0.2l8.9-6.6C37.2,12.5,37.3,12,37,11.7z"/>
		<path class="st0" d="M1.5,33.6l15.7-1.8L7.1,18.2L0.9,32.8C0.7,33.2,1,33.6,1.5,33.6z"/>
		<g class="st1">
			<g>
				<path class="st2" d="M7.1,18.2"/>
				<path class="st2" d="M35.9,10.2l1.1,1.5c0.3,0.3,0.2,0.8-0.2,1.1L28,19.4c-0.1,0-0.1,0.1-0.2,0.2c-0.7,1-10.7,12.3-10.7,12.3
					l-0.3,0L1.5,33.6c-0.4,0-0.7-0.4-0.6-0.8l14.5-5.4l11.4-9.9L35.9,10.2z"/>
			</g>
		</g>
	</g>
	<g>
		<g>
			<line class="st3" x1="12.2" y1="24.7" x2="1" y2="33.3"/>
			<circle class="st4" cx="13.4" cy="23.8" r="1.9"/>
		</g>
	</g>
	<path class="st3" d="M24,19.2l-2.8-3.8c-0.3-0.4-0.8-0.5-1.3-0.3l-5.2,2.4"/>
	<path class="st4" d="M23.5,8.7l7.4,9.9c0.5,0.7,0.4,1.7-0.3,2.2l0,0c-0.7,0.5-1.7,0.4-2.2-0.3l-7.4-9.9c-0.5-0.7-0.4-1.7,0.3-2.2
		l0,0C21.9,7.8,22.9,8,23.5,8.7z"/>
</g>
</svg>
